<?xml version="1.0" encoding="us-ascii" standalone="no"?><svg xmlns="http://www.w3.org/2000/svg" xmlns:xlink="http://www.w3.org/1999/xlink" contentStyleType="text/css" height="622px" preserveAspectRatio="none" style="width:625px;height:622px;background:#FFFFFF;" version="1.1" viewBox="0 0 625 622" width="625px" zoomAndPan="magnify"><defs/><g><text fill="#000000" font-family="sans-serif" font-size="14" font-weight="bold" lengthAdjust="spacing" textLength="207" x="202.25" y="24.5332">Lobby Management Use Case</text><!--cluster App--><g id="cluster_App"><rect fill="none" height="571" rx="2.5" ry="2.5" style="stroke:#181818;stroke-width:1.0;" width="568" x="51.5" y="45.6094"/><text fill="#000000" font-family="sans-serif" font-size="14" font-weight="bold" lengthAdjust="spacing" textLength="27" x="322" y="62.1426">App</text></g><g id="elem_Open Application"><ellipse cx="151.5069" cy="99.5108" fill="#F1F1F1" rx="77.5069" ry="17.9014" style="stroke:#181818;stroke-width:0.5;"/><text fill="#000000" font-family="sans-serif" font-size="14" lengthAdjust="spacing" textLength="108" x="95.3567" y="103.8254">Open Application</text></g><g id="elem_View Home Screen"><ellipse cx="156.5075" cy="235.3109" fill="#F1F1F1" rx="81.5075" ry="18.7015" style="stroke:#181818;stroke-width:0.5;"/><text fill="#000000" font-family="sans-serif" font-size="14" lengthAdjust="spacing" textLength="118" x="97.1675" y="239.1398">View Home Screen</text></g><g id="elem_Create Lobby"><ellipse cx="156.457" cy="347.9008" fill="#F1F1F1" rx="69.457" ry="16.2914" style="stroke:#181818;stroke-width:0.5;"/><text fill="#000000" font-family="sans-serif" font-size="14" lengthAdjust="spacing" textLength="86" x="110.457" y="352.4174">Create Lobby</text></g><g id="elem_Join Lobby"><ellipse cx="343.6685" cy="348.1932" fill="#F1F1F1" rx="60.1685" ry="15.5838" style="stroke:#181818;stroke-width:0.5;"/><text fill="#000000" font-family="sans-serif" font-size="14" lengthAdjust="spacing" textLength="68" x="306.6685" y="352.7098">Join Lobby</text></g><g id="elem_Enter Lobby Code"><ellipse cx="522.2827" cy="462.5659" fill="#F1F1F1" rx="80.2827" ry="18.4565" style="stroke:#181818;stroke-width:0.5;"/><text fill="#000000" font-family="sans-serif" font-size="14" lengthAdjust="spacing" textLength="115" x="463.9192" y="466.5435">Enter Lobby Code</text></g><g id="elem_View Lobby"><ellipse cx="343.6242" cy="462.7135" fill="#F1F1F1" rx="63.1242" ry="15.6042" style="stroke:#181818;stroke-width:0.5;"/><text fill="#000000" font-family="sans-serif" font-size="14" lengthAdjust="spacing" textLength="72" x="304.6242" y="467.2301">View Lobby</text></g><g id="elem_View Lobby Members"><ellipse cx="343.7471" cy="580.6588" fill="#F1F1F1" rx="88.2471" ry="20.0494" style="stroke:#181818;stroke-width:0.5;"/><text fill="#000000" font-family="sans-serif" font-size="14" lengthAdjust="spacing" textLength="134" x="276.7471" y="584.3873">View Lobby Members</text></g><g id="elem_View Lobby As Admin"><ellipse cx="156.6756" cy="462.7445" fill="#F1F1F1" rx="88.6756" ry="20.1351" style="stroke:#181818;stroke-width:0.5;"/><text fill="#000000" font-family="sans-serif" font-size="14" lengthAdjust="spacing" textLength="135" x="89.1756" y="466.473">View Lobby As Admin</text></g><g id="elem_Start Session"><ellipse cx="151.2688" cy="580.7631" fill="#F1F1F1" rx="68.7688" ry="16.1538" style="stroke:#181818;stroke-width:0.5;"/><text fill="#000000" font-family="sans-serif" font-size="14" lengthAdjust="spacing" textLength="84" x="106.2688" y="585.2797">Start Session</text></g><!--entity User--><g id="elem_User"><ellipse cx="20.5" cy="69.1094" fill="#F1F1F1" rx="8" ry="8" style="stroke:#181818;stroke-width:0.5;"/><path d="M20.5,77.1094 L20.5,104.1094 M7.5,85.1094 L33.5,85.1094 M20.5,104.1094 L7.5,119.1094 M20.5,104.1094 L33.5,119.1094 " fill="none" style="stroke:#181818;stroke-width:0.5;"/><text fill="#000000" font-family="sans-serif" font-size="14" lengthAdjust="spacing" textLength="29" x="6" y="135.1426">User</text></g><!--link User to Open Application--><g id="link_User_Open Application"><path d="M35.08,99.6094 C47.97,99.6094 54.85,99.6094 67.74,99.6094 " fill="none" id="User-to-Open Application" style="stroke:#181818;stroke-width:1.0;"/><polygon fill="#181818" points="73.74,99.6094,64.74,95.6094,68.74,99.6094,64.74,103.6094,73.74,99.6094" style="stroke:#181818;stroke-width:1.0;"/></g><!--link Open Application to View Home Screen--><g id="link_Open Application_View Home Screen"><path d="M152.14,117.7894 C153.1,143.2794 154.656,184.8736 155.616,210.5736 " fill="none" id="Open Application-to-View Home Screen" style="stroke:#181818;stroke-width:1.0;stroke-dasharray:7.0,7.0;"/><polygon fill="#181818" points="155.84,216.5694,159.5013,207.4263,155.6534,211.5729,151.5068,207.725,155.84,216.5694" style="stroke:#181818;stroke-width:1.0;"/><text fill="#000000" font-family="sans-serif" font-size="13" lengthAdjust="spacing" textLength="55" x="155.5" y="183.1045">&#171;include&#187;</text></g><!--reverse link View Home Screen to Create Lobby--><g id="link_View Home Screen_Create Lobby"><path d="M156.5,259.9394 C156.5,281.3894 156.5,311.0494 156.5,331.4694 " fill="none" id="View Home Screen-backto-Create Lobby" style="stroke:#181818;stroke-width:1.0;stroke-dasharray:7.0,7.0;"/><polygon fill="#181818" points="156.5,253.9394,152.5,262.9394,156.5,258.9394,160.5,262.9394,156.5,253.9394" style="stroke:#181818;stroke-width:1.0;"/><text fill="#000000" font-family="sans-serif" font-size="13" lengthAdjust="spacing" textLength="53" x="157.5" y="298.1045">&#171;extend&#187;</text></g><!--reverse link View Home Screen to Join Lobby--><g id="link_View Home Screen_Join Lobby"><path d="M189.6595,255.792 C226.8395,277.862 286.66,313.3694 320.9,333.6994 " fill="none" id="View Home Screen-backto-Join Lobby" style="stroke:#181818;stroke-width:1.0;stroke-dasharray:7.0,7.0;"/><polygon fill="#181818" points="184.5,252.7294,190.1974,260.763,188.7996,255.2816,194.281,253.8837,184.5,252.7294" style="stroke:#181818;stroke-width:1.0;"/><text fill="#000000" font-family="sans-serif" font-size="13" lengthAdjust="spacing" textLength="53" x="267.5" y="298.1045">&#171;extend&#187;</text></g><!--link Join Lobby to Enter Lobby Code--><g id="link_Join Lobby_Enter Lobby Code"><path d="M365.09,362.6794 C398.01,383.3694 455.58,419.5467 491.11,441.8767 " fill="none" id="Join Lobby-to-Enter Lobby Code" style="stroke:#181818;stroke-width:1.0;stroke-dasharray:7.0,7.0;"/><polygon fill="#181818" points="496.19,445.0694,490.6984,436.8936,491.9566,442.4088,486.4415,443.667,496.19,445.0694" style="stroke:#181818;stroke-width:1.0;"/><text fill="#000000" font-family="sans-serif" font-size="13" lengthAdjust="spacing" textLength="55" x="444.5" y="409.1045">&#171;include&#187;</text></g><!--reverse link Join Lobby to View Lobby--><g id="link_Join Lobby_View Lobby"><path d="M343.5,369.8194 C343.5,391.3794 343.5,425.3394 343.5,446.8994 " fill="none" id="Join Lobby-backto-View Lobby" style="stroke:#181818;stroke-width:1.0;stroke-dasharray:7.0,7.0;"/><polygon fill="#181818" points="343.5,363.8194,339.5,372.8194,343.5,368.8194,347.5,372.8194,343.5,363.8194" style="stroke:#181818;stroke-width:1.0;"/><text fill="#000000" font-family="sans-serif" font-size="13" lengthAdjust="spacing" textLength="53" x="344.5" y="409.1045">&#171;extend&#187;</text></g><!--link View Lobby to View Lobby Members--><g id="link_View Lobby_View Lobby Members"><path d="M343.5,478.2994 C343.5,499.1494 343.5,531.3494 343.5,554.4194 " fill="none" id="View Lobby-to-View Lobby Members" style="stroke:#181818;stroke-width:1.0;stroke-dasharray:7.0,7.0;"/><polygon fill="#181818" points="343.5,560.4194,347.5,551.4194,343.5,555.4194,339.5,551.4194,343.5,560.4194" style="stroke:#181818;stroke-width:1.0;"/><text fill="#000000" font-family="sans-serif" font-size="13" lengthAdjust="spacing" textLength="55" x="344.5" y="527.1045">&#171;include&#187;</text></g><!--reverse link Create Lobby to View Lobby As Admin--><g id="link_Create Lobby_View Lobby As Admin"><path d="M156.5,370.7494 C156.5,391.0394 156.5,420.4094 156.5,442.3294 " fill="none" id="Create Lobby-backto-View Lobby As Admin" style="stroke:#181818;stroke-width:1.0;stroke-dasharray:7.0,7.0;"/><polygon fill="#181818" points="156.5,364.7494,152.5,373.7494,156.5,369.7494,160.5,373.7494,156.5,364.7494" style="stroke:#181818;stroke-width:1.0;"/><text fill="#000000" font-family="sans-serif" font-size="13" lengthAdjust="spacing" textLength="53" x="157.5" y="409.1045">&#171;extend&#187;</text></g><!--link View Lobby As Admin to View Lobby Members--><g id="link_View Lobby As Admin_View Lobby Members"><path d="M185.72,481.7294 C220.85,503.5294 274.3509,536.7172 309.3909,558.4472 " fill="none" id="View Lobby As Admin-to-View Lobby Members" style="stroke:#181818;stroke-width:1.0;stroke-dasharray:7.0,7.0;"/><polygon fill="#181818" points="314.49,561.6094,308.9495,553.4667,310.2408,558.9742,304.7333,560.2655,314.49,561.6094" style="stroke:#181818;stroke-width:1.0;"/><text fill="#000000" font-family="sans-serif" font-size="13" lengthAdjust="spacing" textLength="55" x="261.5" y="527.1045">&#171;include&#187;</text></g><!--reverse link View Lobby As Admin to Start Session--><g id="link_View Lobby As Admin_Start Session"><path d="M151.5965,488.5044 C149.9665,497.5544 149.31,502.6394 148.5,512.6094 C147.06,530.3694 148.41,550.8294 149.73,564.4194 " fill="none" id="View Lobby As Admin-backto-Start Session" style="stroke:#181818;stroke-width:1.0;stroke-dasharray:7.0,7.0;"/><polygon fill="#181818" points="152.66,482.5994,147.128,490.7478,151.7737,487.5202,155.0013,492.1659,152.66,482.5994" style="stroke:#181818;stroke-width:1.0;"/><text fill="#000000" font-family="sans-serif" font-size="13" lengthAdjust="spacing" textLength="53" x="149.5" y="527.1045">&#171;extend&#187;</text></g><!--SRC=[bP51IyGm58Jl_HLpSptO7r1AeHH1nCL3MUzfEzP0cvJaYIlYVpTD3tRTkc9kcJUJRnuHBGEJ1ziqxzWhetgED8A39ohbcT1qaEYvmi1dWLWutRy8EktOYhOcoOBRPSbyLQOVY7AQFXA4iqnmKs3tED7CWq6tQavTHyEvZ3GDxYVDDzpPaQXRHmOvGvvhqmwl7OjYoPwRyZJ5hd9KGiITbXoF4lRu8tPljVazj9x6XhT6w1O5bUsusN2TYf38ljni3VaMiEVOqFbDpEd6Fq0eFSfkrEOoSMNx3thpWTYW5kK4DRsFtth2_lm2]--></g></svg>