<?xml version="1.0" encoding="us-ascii" standalone="no"?><svg xmlns="http://www.w3.org/2000/svg" xmlns:xlink="http://www.w3.org/1999/xlink" contentStyleType="text/css" height="505px" preserveAspectRatio="none" style="width:449px;height:505px;background:#FFFFFF;" version="1.1" viewBox="0 0 449 505" width="449px" zoomAndPan="magnify"><defs/><g><text fill="#000000" font-family="sans-serif" font-size="14" font-weight="bold" lengthAdjust="spacing" textLength="156" x="139.75" y="24.5332">Vote System Use Case</text><!--cluster App--><g id="cluster_App"><rect fill="none" height="454" rx="2.5" ry="2.5" style="stroke:#181818;stroke-width:1.0;" width="392" x="51.5" y="45.6094"/><text fill="#000000" font-family="sans-serif" font-size="14" font-weight="bold" lengthAdjust="spacing" textLength="27" x="234" y="62.1426">App</text></g><g id="elem_Be In Started Session"><ellipse cx="159.605" cy="101.8304" fill="#F1F1F1" rx="89.105" ry="20.221" style="stroke:#181818;stroke-width:0.5;"/><text fill="#000000" font-family="sans-serif" font-size="14" lengthAdjust="spacing" textLength="136" x="91.605" y="105.5589">Be In Started Session</text></g><g id="elem_View Movie Information"><ellipse cx="203.566" cy="239.5226" fill="#F1F1F1" rx="92.566" ry="20.9132" style="stroke:#181818;stroke-width:0.5;"/><text fill="#000000" font-family="sans-serif" font-size="14" lengthAdjust="spacing" textLength="144" x="131.566" y="243.2511">View Movie Information</text></g><g id="elem_Vote Yes"><ellipse cx="246.5419" cy="354.1253" fill="#F1F1F1" rx="52.0419" ry="15.5159" style="stroke:#181818;stroke-width:0.5;"/><text fill="#000000" font-family="sans-serif" font-size="14" lengthAdjust="spacing" textLength="57" x="215.0419" y="358.6419">Vote Yes</text></g><g id="elem_Vote No"><ellipse cx="380.4051" cy="354.0794" fill="#F1F1F1" rx="46.9051" ry="15.47" style="stroke:#181818;stroke-width:0.5;"/><text fill="#000000" font-family="sans-serif" font-size="14" lengthAdjust="spacing" textLength="50" x="353.7227" y="358.2858">Vote No</text></g><g id="elem_Go To Next Movie"><ellipse cx="246.5785" cy="465.8251" fill="#F1F1F1" rx="79.0785" ry="18.2157" style="stroke:#181818;stroke-width:0.5;"/><text fill="#000000" font-family="sans-serif" font-size="14" lengthAdjust="spacing" textLength="112" x="189.1751" y="469.9489">Go To Next Movie</text></g><!--entity User--><g id="elem_User"><ellipse cx="20.5" cy="71.1094" fill="#F1F1F1" rx="8" ry="8" style="stroke:#181818;stroke-width:0.5;"/><path d="M20.5,79.1094 L20.5,106.1094 M7.5,87.1094 L33.5,87.1094 M20.5,106.1094 L7.5,121.1094 M20.5,106.1094 L33.5,121.1094 " fill="none" style="stroke:#181818;stroke-width:0.5;"/><text fill="#000000" font-family="sans-serif" font-size="14" lengthAdjust="spacing" textLength="29" x="6" y="137.1426">User</text></g><!--link User to Be In Started Session--><g id="link_User_Be In Started Session"><path d="M35.16,101.6094 C46.82,101.6094 52.47,101.6094 64.13,101.6094 " fill="none" id="User-to-Be In Started Session" style="stroke:#181818;stroke-width:1.0;"/><polygon fill="#181818" points="70.13,101.6094,61.13,97.6094,65.13,101.6094,61.13,105.6094,70.13,101.6094" style="stroke:#181818;stroke-width:1.0;"/></g><!--link Be In Started Session to View Movie Information--><g id="link_Be In Started Session_View Movie Information"><path d="M165.71,121.8094 C174,147.4294 186.7747,186.9002 195.1847,212.9202 " fill="none" id="Be In Started Session-to-View Movie Information" style="stroke:#181818;stroke-width:1.0;stroke-dasharray:7.0,7.0;"/><polygon fill="#181818" points="197.03,218.6294,198.0682,208.8354,195.4923,213.8717,190.4559,211.2958,197.03,218.6294" style="stroke:#181818;stroke-width:1.0;"/><text fill="#000000" font-family="sans-serif" font-size="13" lengthAdjust="spacing" textLength="55" x="187.5" y="185.1045">&#171;include&#187;</text></g><!--reverse link View Movie Information to Vote Yes--><g id="link_View Movie Information_Vote Yes"><path d="M213.3313,266.3243 C221.8813,288.7043 233.35,318.6994 240.93,338.5394 " fill="none" id="View Movie Information-backto-Vote Yes" style="stroke:#181818;stroke-width:1.0;stroke-dasharray:7.0,7.0;"/><polygon fill="#181818" points="211.19,260.7194,210.6653,270.5542,212.9744,265.3901,218.1385,267.6992,211.19,260.7194" style="stroke:#181818;stroke-width:1.0;"/><text fill="#000000" font-family="sans-serif" font-size="13" lengthAdjust="spacing" textLength="53" x="229.5" y="305.1045">&#171;extend&#187;</text></g><!--reverse link View Movie Information to Vote No--><g id="link_View Movie Information_Vote No"><path d="M243.4663,262.2408 C259.8463,271.3308 274.28,279.7094 291.5,290.6094 C316.7,306.5694 344.7,326.6394 362.44,339.6594 " fill="none" id="View Movie Information-backto-Vote No" style="stroke:#181818;stroke-width:1.0;stroke-dasharray:7.0,7.0;"/><polygon fill="#181818" points="238.22,259.3294,244.1485,267.194,242.5919,261.7555,248.0304,260.199,238.22,259.3294" style="stroke:#181818;stroke-width:1.0;"/><text fill="#000000" font-family="sans-serif" font-size="13" lengthAdjust="spacing" textLength="53" x="316.5" y="305.1045">&#171;extend&#187;</text></g><!--link Vote Yes to Go To Next Movie--><g id="link_Vote Yes_Go To Next Movie"><path d="M246.5,369.8794 C246.5,390.0794 246.5,420.2394 246.5,441.5594 " fill="none" id="Vote Yes-to-Go To Next Movie" style="stroke:#181818;stroke-width:1.0;stroke-dasharray:7.0,7.0;"/><polygon fill="#181818" points="246.5,447.5594,250.5,438.5594,246.5,442.5594,242.5,438.5594,246.5,447.5594" style="stroke:#181818;stroke-width:1.0;"/><text fill="#000000" font-family="sans-serif" font-size="13" lengthAdjust="spacing" textLength="55" x="247.5" y="414.1045">&#171;include&#187;</text></g><!--link Vote No to Go To Next Movie--><g id="link_Vote No_Go To Next Movie"><path d="M366.11,368.9994 C352.43,381.9994 331.09,401.7394 311.5,417.6094 C298.3,428.3094 287.8304,436.0315 275.3404,444.8015 " fill="none" id="Vote No-to-Go To Next Movie" style="stroke:#181818;stroke-width:1.0;stroke-dasharray:7.0,7.0;"/><polygon fill="#181818" points="270.43,448.2494,280.0942,446.3511,274.522,445.3761,275.497,439.8039,270.43,448.2494" style="stroke:#181818;stroke-width:1.0;"/><text fill="#000000" font-family="sans-serif" font-size="13" lengthAdjust="spacing" textLength="55" x="331.5" y="414.1045">&#171;include&#187;</text></g><!--link Go To Next Movie to View Movie Information--><g id="link_Go To Next Movie_View Movie Information"><path d="M211.39,449.3694 C181.09,434.0794 139.32,407.3694 120.5,369.6094 C100.01,328.4994 140.0897,287.9105 171.4997,263.4005 " fill="none" id="Go To Next Movie-to-View Movie Information" style="stroke:#181818;stroke-width:1.0;stroke-dasharray:7.0,7.0;"/><polygon fill="#181818" points="176.23,259.7094,166.6738,262.0926,172.2881,262.7853,171.5954,268.3996,176.23,259.7094" style="stroke:#181818;stroke-width:1.0;"/><text fill="#000000" font-family="sans-serif" font-size="13" lengthAdjust="spacing" textLength="55" x="121.5" y="359.6045">&#171;include&#187;</text></g><!--SRC=[ZP2z3e8m58NtFiNPr44UW10ITJ0Eig0aZWGksWHQqbx_Odnt2uqkGaAtvdpVoRsN9TSaCis4z6cP6XmjOPDR4gHAS1_FK5F5O0qZpnT6AGqLBBKIeQDDABflhiurOTMsBm7tV89bZFcQi5D8EJTC9LAorgcBdXh940JEooJTiTStsJ6LDatEVHWYYgGgwcj9SUnhnj0e25pORNSYwqrwiDjikfZeGU_NsO-wrJXe98xnPSD3VkkcA__GzCEyFm00]--></g></svg>