<?xml version="1.0" encoding="us-ascii" standalone="no"?><svg xmlns="http://www.w3.org/2000/svg" xmlns:xlink="http://www.w3.org/1999/xlink" contentStyleType="text/css" height="1076px" preserveAspectRatio="none" style="width:610px;height:1076px;background:#FFFFFF;" version="1.1" viewBox="0 0 610 1076" width="610px" zoomAndPan="magnify"><defs/><g><text fill="#000000" font-family="sans-serif" font-size="14" font-weight="bold" lengthAdjust="spacing" textLength="112" x="247.5" y="34.5332">Activity Diagram</text><ellipse cx="314.5" cy="58.6094" fill="#222222" rx="10" ry="10" style="stroke:#222222;stroke-width:1.0;"/><rect fill="#F1F1F1" height="35.0938" rx="12.5" ry="12.5" style="stroke:#181818;stroke-width:0.5;" width="74" x="277.5" y="88.6094"/><text fill="#000000" font-family="sans-serif" font-size="12" lengthAdjust="spacing" textLength="54" x="287.5" y="111.0664">Open app</text><polygon fill="#F1F1F1" points="282,143.7031,347,143.7031,359,155.7031,347,167.7031,282,167.7031,270,155.7031,282,143.7031" style="stroke:#181818;stroke-width:0.5;"/><text fill="#000000" font-family="sans-serif" font-size="11" lengthAdjust="spacing" textLength="65" x="282" y="160.2041">Create room?</text><text fill="#000000" font-family="sans-serif" font-size="11" lengthAdjust="spacing" textLength="18" x="252" y="153.2861">yes</text><text fill="#000000" font-family="sans-serif" font-size="11" lengthAdjust="spacing" textLength="12" x="359" y="153.2861">no</text><rect fill="#F1F1F1" height="35.0938" rx="12.5" ry="12.5" style="stroke:#181818;stroke-width:0.5;" width="89" x="190.25" y="177.7031"/><text fill="#000000" font-family="sans-serif" font-size="12" lengthAdjust="spacing" textLength="69" x="200.25" y="200.1602">Create room</text><rect fill="#F1F1F1" height="35.0938" rx="12.5" ry="12.5" style="stroke:#181818;stroke-width:0.5;" width="130" x="169.75" y="232.7969"/><text fill="#000000" font-family="sans-serif" font-size="12" lengthAdjust="spacing" textLength="110" x="179.75" y="255.2539">Join room as admin</text><rect fill="#F1F1F1" height="35.0938" rx="12.5" ry="12.5" style="stroke:#181818;stroke-width:0.5;" width="105" x="182.25" y="287.8906"/><text fill="#000000" font-family="sans-serif" font-size="12" lengthAdjust="spacing" textLength="85" x="192.25" y="310.3477">Pick movie lists</text><rect fill="#F1F1F1" height="35.0938" rx="12.5" ry="12.5" style="stroke:#181818;stroke-width:0.5;" width="93" x="188.25" y="342.9844"/><text fill="#000000" font-family="sans-serif" font-size="12" lengthAdjust="spacing" textLength="73" x="198.25" y="365.4414">Start session</text><rect fill="#F1F1F1" height="35.0938" rx="12.5" ry="12.5" style="stroke:#181818;stroke-width:0.5;" width="75" x="356.75" y="177.7031"/><text fill="#000000" font-family="sans-serif" font-size="12" lengthAdjust="spacing" textLength="55" x="366.75" y="200.1602">Join room</text><rect fill="#F1F1F1" height="35.0938" rx="12.5" ry="12.5" style="stroke:#181818;stroke-width:0.5;" width="149" x="319.75" y="232.7969"/><text fill="#000000" font-family="sans-serif" font-size="12" lengthAdjust="spacing" textLength="129" x="329.75" y="255.2539">Wait for session to start</text><polygon fill="#F1F1F1" points="314.5,384.0781,326.5,396.0781,314.5,408.0781,302.5,396.0781,314.5,384.0781" style="stroke:#181818;stroke-width:0.5;"/><rect fill="#F1F1F1" height="35.0938" rx="12.5" ry="12.5" style="stroke:#181818;stroke-width:0.5;" width="147" x="241" y="528.9971"/><text fill="#000000" font-family="sans-serif" font-size="12" lengthAdjust="spacing" textLength="127" x="251" y="551.4541">View movie information</text><polygon fill="#F1F1F1" points="281,584.0908,348,584.0908,360,596.0908,348,608.0908,281,608.0908,269,596.0908,281,584.0908" style="stroke:#181818;stroke-width:0.5;"/><text fill="#000000" font-family="sans-serif" font-size="11" lengthAdjust="spacing" textLength="67" x="281" y="600.5918">Select movie?</text><text fill="#000000" font-family="sans-serif" font-size="11" lengthAdjust="spacing" textLength="18" x="251" y="593.6738">yes</text><text fill="#000000" font-family="sans-serif" font-size="11" lengthAdjust="spacing" textLength="12" x="360" y="593.6738">no</text><rect fill="#F1F1F1" height="35.0938" rx="12.5" ry="12.5" style="stroke:#181818;stroke-width:0.5;" width="115" x="190.75" y="618.0908"/><text fill="#000000" font-family="sans-serif" font-size="12" lengthAdjust="spacing" textLength="95" x="200.75" y="640.5479">Vote yes to movie</text><rect fill="#F1F1F1" height="35.0938" rx="12.5" ry="12.5" style="stroke:#181818;stroke-width:0.5;" width="110" x="325.75" y="618.0908"/><text fill="#000000" font-family="sans-serif" font-size="12" lengthAdjust="spacing" textLength="90" x="335.75" y="640.5479">Vote no to movie</text><polygon fill="#F1F1F1" points="314.5,659.1846,326.5,671.1846,314.5,683.1846,302.5,671.1846,314.5,659.1846" style="stroke:#181818;stroke-width:0.5;"/><rect fill="#F1F1F1" height="35.0938" rx="12.5" ry="12.5" style="stroke:#181818;stroke-width:0.5;" width="110" x="259.5" y="703.1846"/><text fill="#000000" font-family="sans-serif" font-size="12" lengthAdjust="spacing" textLength="90" x="269.5" y="725.6416">Go to next movie</text><polygon fill="#F1F1F1" points="263,472.0781,366,472.0781,378,484.0781,366,496.0781,263,496.0781,251,484.0781,263,472.0781" style="stroke:#181818;stroke-width:0.5;"/><text fill="#000000" font-family="sans-serif" font-size="11" lengthAdjust="spacing" textLength="18" x="318.5" y="507.4971">yes</text><text fill="#000000" font-family="sans-serif" font-size="11" lengthAdjust="spacing" textLength="103" x="263" y="488.5791">More movies to vote?</text><text fill="#000000" font-family="sans-serif" font-size="11" lengthAdjust="spacing" textLength="12" x="239" y="481.6611">no</text><rect fill="#F1F1F1" height="35.0938" rx="12.5" ry="12.5" style="stroke:#181818;stroke-width:0.5;" width="112" x="258.5" y="782.2783"/><text fill="#000000" font-family="sans-serif" font-size="12" lengthAdjust="spacing" textLength="92" x="268.5" y="804.7354">View scoreboard</text><polygon fill="#F1F1F1" points="276.5,837.3721,352.5,837.3721,364.5,849.3721,352.5,861.3721,276.5,861.3721,264.5,849.3721,276.5,837.3721" style="stroke:#181818;stroke-width:0.5;"/><text fill="#000000" font-family="sans-serif" font-size="11" lengthAdjust="spacing" textLength="76" x="276.5" y="853.873">Are you admin?</text><text fill="#000000" font-family="sans-serif" font-size="11" lengthAdjust="spacing" textLength="18" x="246.5" y="846.9551">yes</text><text fill="#000000" font-family="sans-serif" font-size="11" lengthAdjust="spacing" textLength="12" x="364.5" y="846.9551">no</text><polygon fill="#F1F1F1" points="92,871.3721,272,871.3721,284,883.3721,272,895.3721,92,895.3721,80,883.3721,92,871.3721" style="stroke:#181818;stroke-width:0.5;"/><text fill="#000000" font-family="sans-serif" font-size="11" lengthAdjust="spacing" textLength="180" x="92" y="887.873">Do you want to start a new iteration?</text><text fill="#000000" font-family="sans-serif" font-size="11" lengthAdjust="spacing" textLength="18" x="62" y="880.9551">yes</text><text fill="#000000" font-family="sans-serif" font-size="11" lengthAdjust="spacing" textLength="12" x="284" y="880.9551">no</text><rect fill="#F1F1F1" height="35.0938" rx="12.5" ry="12.5" style="stroke:#181818;stroke-width:0.5;" width="118" x="11" y="905.3721"/><text fill="#000000" font-family="sans-serif" font-size="12" lengthAdjust="spacing" textLength="98" x="21" y="927.8291">Start new iteration</text><rect fill="#F1F1F1" height="35.0938" rx="12.5" ry="12.5" style="stroke:#181818;stroke-width:0.5;" width="90" x="249" y="905.3721"/><text fill="#000000" font-family="sans-serif" font-size="12" lengthAdjust="spacing" textLength="70" x="259" y="927.8291">End session</text><ellipse cx="294" cy="971.4658" fill="none" rx="11" ry="11" style="stroke:#222222;stroke-width:1.0;"/><ellipse cx="294" cy="971.4658" fill="#222222" rx="6" ry="6" style="stroke:#222222;stroke-width:1.0;"/><polygon fill="#F1F1F1" points="381,871.3721,513,871.3721,525,883.3721,513,895.3721,381,895.3721,369,883.3721,381,871.3721" style="stroke:#181818;stroke-width:0.5;"/><text fill="#000000" font-family="sans-serif" font-size="11" lengthAdjust="spacing" textLength="18" x="451" y="906.791">yes</text><text fill="#000000" font-family="sans-serif" font-size="11" lengthAdjust="spacing" textLength="132" x="381" y="887.873">New iteration was started?</text><text fill="#000000" font-family="sans-serif" font-size="11" lengthAdjust="spacing" textLength="12" x="525" y="880.9551">no</text><ellipse cx="559" cy="883.3721" fill="none" rx="11" ry="11" style="stroke:#222222;stroke-width:1.0;"/><ellipse cx="559" cy="883.3721" fill="#222222" rx="6" ry="6" style="stroke:#222222;stroke-width:1.0;"/><polygon fill="#F1F1F1" points="314.5,992.4658,326.5,1004.4658,314.5,1016.4658,302.5,1004.4658,314.5,992.4658" style="stroke:#181818;stroke-width:0.5;"/><polygon fill="#F1F1F1" points="314.5,428.0781,326.5,440.0781,314.5,452.0781,302.5,440.0781,314.5,428.0781" style="stroke:#181818;stroke-width:0.5;"/><line style="stroke:#181818;stroke-width:1.0;" x1="314.5" x2="314.5" y1="68.6094" y2="88.6094"/><polygon fill="#181818" points="310.5,78.6094,314.5,88.6094,318.5,78.6094,314.5,82.6094" style="stroke:#181818;stroke-width:1.0;"/><line style="stroke:#181818;stroke-width:1.0;" x1="234.75" x2="234.75" y1="212.7969" y2="232.7969"/><polygon fill="#181818" points="230.75,222.7969,234.75,232.7969,238.75,222.7969,234.75,226.7969" style="stroke:#181818;stroke-width:1.0;"/><line style="stroke:#181818;stroke-width:1.0;" x1="234.75" x2="234.75" y1="267.8906" y2="287.8906"/><polygon fill="#181818" points="230.75,277.8906,234.75,287.8906,238.75,277.8906,234.75,281.8906" style="stroke:#181818;stroke-width:1.0;"/><line style="stroke:#181818;stroke-width:1.0;" x1="234.75" x2="234.75" y1="322.9844" y2="342.9844"/><polygon fill="#181818" points="230.75,332.9844,234.75,342.9844,238.75,332.9844,234.75,336.9844" style="stroke:#181818;stroke-width:1.0;"/><line style="stroke:#181818;stroke-width:1.0;" x1="394.25" x2="394.25" y1="212.7969" y2="232.7969"/><polygon fill="#181818" points="390.25,222.7969,394.25,232.7969,398.25,222.7969,394.25,226.7969" style="stroke:#181818;stroke-width:1.0;"/><line style="stroke:#181818;stroke-width:1.0;" x1="270" x2="234.75" y1="155.7031" y2="155.7031"/><line style="stroke:#181818;stroke-width:1.0;" x1="234.75" x2="234.75" y1="155.7031" y2="177.7031"/><polygon fill="#181818" points="230.75,167.7031,234.75,177.7031,238.75,167.7031,234.75,171.7031" style="stroke:#181818;stroke-width:1.0;"/><line style="stroke:#181818;stroke-width:1.0;" x1="359" x2="394.25" y1="155.7031" y2="155.7031"/><line style="stroke:#181818;stroke-width:1.0;" x1="394.25" x2="394.25" y1="155.7031" y2="177.7031"/><polygon fill="#181818" points="390.25,167.7031,394.25,177.7031,398.25,167.7031,394.25,171.7031" style="stroke:#181818;stroke-width:1.0;"/><line style="stroke:#181818;stroke-width:1.0;" x1="234.75" x2="234.75" y1="378.0781" y2="396.0781"/><line style="stroke:#181818;stroke-width:1.0;" x1="234.75" x2="302.5" y1="396.0781" y2="396.0781"/><polygon fill="#181818" points="292.5,392.0781,302.5,396.0781,292.5,400.0781,296.5,396.0781" style="stroke:#181818;stroke-width:1.0;"/><line style="stroke:#181818;stroke-width:1.0;" x1="394.25" x2="394.25" y1="267.8906" y2="396.0781"/><line style="stroke:#181818;stroke-width:1.0;" x1="394.25" x2="326.5" y1="396.0781" y2="396.0781"/><polygon fill="#181818" points="336.5,392.0781,326.5,396.0781,336.5,400.0781,332.5,396.0781" style="stroke:#181818;stroke-width:1.0;"/><line style="stroke:#181818;stroke-width:1.0;" x1="314.5" x2="314.5" y1="123.7031" y2="143.7031"/><polygon fill="#181818" points="310.5,133.7031,314.5,143.7031,318.5,133.7031,314.5,137.7031" style="stroke:#181818;stroke-width:1.0;"/><line style="stroke:#181818;stroke-width:1.0;" x1="269" x2="248.25" y1="596.0908" y2="596.0908"/><line style="stroke:#181818;stroke-width:1.0;" x1="248.25" x2="248.25" y1="596.0908" y2="618.0908"/><polygon fill="#181818" points="244.25,608.0908,248.25,618.0908,252.25,608.0908,248.25,612.0908" style="stroke:#181818;stroke-width:1.0;"/><line style="stroke:#181818;stroke-width:1.0;" x1="360" x2="380.75" y1="596.0908" y2="596.0908"/><line style="stroke:#181818;stroke-width:1.0;" x1="380.75" x2="380.75" y1="596.0908" y2="618.0908"/><polygon fill="#181818" points="376.75,608.0908,380.75,618.0908,384.75,608.0908,380.75,612.0908" style="stroke:#181818;stroke-width:1.0;"/><line style="stroke:#181818;stroke-width:1.0;" x1="248.25" x2="248.25" y1="653.1846" y2="671.1846"/><line style="stroke:#181818;stroke-width:1.0;" x1="248.25" x2="302.5" y1="671.1846" y2="671.1846"/><polygon fill="#181818" points="292.5,667.1846,302.5,671.1846,292.5,675.1846,296.5,671.1846" style="stroke:#181818;stroke-width:1.0;"/><line style="stroke:#181818;stroke-width:1.0;" x1="380.75" x2="380.75" y1="653.1846" y2="671.1846"/><line style="stroke:#181818;stroke-width:1.0;" x1="380.75" x2="326.5" y1="671.1846" y2="671.1846"/><polygon fill="#181818" points="336.5,667.1846,326.5,671.1846,336.5,675.1846,332.5,671.1846" style="stroke:#181818;stroke-width:1.0;"/><line style="stroke:#181818;stroke-width:1.0;" x1="314.5" x2="314.5" y1="564.0908" y2="584.0908"/><polygon fill="#181818" points="310.5,574.0908,314.5,584.0908,318.5,574.0908,314.5,578.0908" style="stroke:#181818;stroke-width:1.0;"/><line style="stroke:#181818;stroke-width:1.0;" x1="314.5" x2="314.5" y1="683.1846" y2="703.1846"/><polygon fill="#181818" points="310.5,693.1846,314.5,703.1846,318.5,693.1846,314.5,697.1846" style="stroke:#181818;stroke-width:1.0;"/><line style="stroke:#181818;stroke-width:1.0;" x1="314.5" x2="314.5" y1="496.0781" y2="528.9971"/><polygon fill="#181818" points="310.5,518.9971,314.5,528.9971,318.5,518.9971,314.5,522.9971" style="stroke:#181818;stroke-width:1.0;"/><line style="stroke:#181818;stroke-width:1.0;" x1="314.5" x2="314.5" y1="738.2783" y2="750.2783"/><line style="stroke:#181818;stroke-width:1.0;" x1="314.5" x2="457.75" y1="750.2783" y2="750.2783"/><polygon fill="#181818" points="453.75,624.7197,457.75,614.7197,461.75,624.7197,457.75,620.7197" style="stroke:#181818;stroke-width:1.0;"/><line style="stroke:#181818;stroke-width:1.0;" x1="457.75" x2="457.75" y1="484.0781" y2="750.2783"/><line style="stroke:#181818;stroke-width:1.0;" x1="457.75" x2="378" y1="484.0781" y2="484.0781"/><polygon fill="#181818" points="388,480.0781,378,484.0781,388,488.0781,384,484.0781" style="stroke:#181818;stroke-width:1.0;"/><line style="stroke:#181818;stroke-width:1.0;" x1="251" x2="168.75" y1="484.0781" y2="484.0781"/><polygon fill="#181818" points="164.75,610.7197,168.75,620.7197,172.75,610.7197,168.75,614.7197" style="stroke:#181818;stroke-width:1.0;"/><line style="stroke:#181818;stroke-width:1.0;" x1="168.75" x2="168.75" y1="484.0781" y2="762.2783"/><line style="stroke:#181818;stroke-width:1.0;" x1="168.75" x2="314.5" y1="762.2783" y2="762.2783"/><line style="stroke:#181818;stroke-width:1.0;" x1="314.5" x2="314.5" y1="762.2783" y2="782.2783"/><polygon fill="#181818" points="310.5,772.2783,314.5,782.2783,318.5,772.2783,314.5,776.2783" style="stroke:#181818;stroke-width:1.0;"/><line style="stroke:#181818;stroke-width:1.0;" x1="294" x2="294" y1="940.4658" y2="960.4658"/><polygon fill="#181818" points="290,950.4658,294,960.4658,298,950.4658,294,954.4658" style="stroke:#181818;stroke-width:1.0;"/><line style="stroke:#181818;stroke-width:1.0;" x1="80" x2="70" y1="883.3721" y2="883.3721"/><line style="stroke:#181818;stroke-width:1.0;" x1="70" x2="70" y1="883.3721" y2="905.3721"/><polygon fill="#181818" points="66,895.3721,70,905.3721,74,895.3721,70,899.3721" style="stroke:#181818;stroke-width:1.0;"/><line style="stroke:#181818;stroke-width:1.0;" x1="284" x2="294" y1="883.3721" y2="883.3721"/><line style="stroke:#181818;stroke-width:1.0;" x1="294" x2="294" y1="883.3721" y2="905.3721"/><polygon fill="#181818" points="290,895.3721,294,905.3721,298,895.3721,294,899.3721" style="stroke:#181818;stroke-width:1.0;"/><line style="stroke:#181818;stroke-width:1.0;" x1="70" x2="70" y1="940.4658" y2="1004.4658"/><line style="stroke:#181818;stroke-width:1.0;" x1="70" x2="302.5" y1="1004.4658" y2="1004.4658"/><polygon fill="#181818" points="292.5,1000.4658,302.5,1004.4658,292.5,1008.4658,296.5,1004.4658" style="stroke:#181818;stroke-width:1.0;"/><line style="stroke:#181818;stroke-width:1.0;" x1="447" x2="447" y1="895.3721" y2="1004.4658"/><line style="stroke:#181818;stroke-width:1.0;" x1="447" x2="326.5" y1="1004.4658" y2="1004.4658"/><polygon fill="#181818" points="336.5,1000.4658,326.5,1004.4658,336.5,1008.4658,332.5,1004.4658" style="stroke:#181818;stroke-width:1.0;"/><line style="stroke:#181818;stroke-width:1.0;" x1="525" x2="548" y1="883.3721" y2="883.3721"/><polygon fill="#181818" points="538,879.3721,548,883.3721,538,887.3721,542,883.3721" style="stroke:#181818;stroke-width:1.0;"/><line style="stroke:#181818;stroke-width:1.0;" x1="264.5" x2="182" y1="849.3721" y2="849.3721"/><line style="stroke:#181818;stroke-width:1.0;" x1="182" x2="182" y1="849.3721" y2="871.3721"/><polygon fill="#181818" points="178,861.3721,182,871.3721,186,861.3721,182,865.3721" style="stroke:#181818;stroke-width:1.0;"/><line style="stroke:#181818;stroke-width:1.0;" x1="364.5" x2="447" y1="849.3721" y2="849.3721"/><line style="stroke:#181818;stroke-width:1.0;" x1="447" x2="447" y1="849.3721" y2="871.3721"/><polygon fill="#181818" points="443,861.3721,447,871.3721,451,861.3721,447,865.3721" style="stroke:#181818;stroke-width:1.0;"/><line style="stroke:#181818;stroke-width:1.0;" x1="314.5" x2="314.5" y1="817.3721" y2="837.3721"/><polygon fill="#181818" points="310.5,827.3721,314.5,837.3721,318.5,827.3721,314.5,831.3721" style="stroke:#181818;stroke-width:1.0;"/><line style="stroke:#181818;stroke-width:1.0;" x1="314.5" x2="314.5" y1="452.0781" y2="472.0781"/><polygon fill="#181818" points="310.5,462.0781,314.5,472.0781,318.5,462.0781,314.5,466.0781" style="stroke:#181818;stroke-width:1.0;"/><line style="stroke:#181818;stroke-width:1.0;" x1="314.5" x2="314.5" y1="1016.4658" y2="1064.4658"/><line style="stroke:#181818;stroke-width:1.0;" x1="314.5" x2="584" y1="1064.4658" y2="1064.4658"/><polygon fill="#181818" points="580,754.3135,584,744.3135,588,754.3135,584,750.3135" style="stroke:#181818;stroke-width:1.0;"/><line style="stroke:#181818;stroke-width:1.0;" x1="584" x2="584" y1="440.0781" y2="1064.4658"/><line style="stroke:#181818;stroke-width:1.0;" x1="584" x2="326.5" y1="440.0781" y2="440.0781"/><polygon fill="#181818" points="336.5,436.0781,326.5,440.0781,336.5,444.0781,332.5,440.0781" style="stroke:#181818;stroke-width:1.0;"/><line style="stroke:#181818;stroke-width:1.0;" x1="314.5" x2="314.5" y1="408.0781" y2="428.0781"/><polygon fill="#181818" points="310.5,418.0781,314.5,428.0781,318.5,418.0781,314.5,422.0781" style="stroke:#181818;stroke-width:1.0;"/><!--SRC=[TPBDReCm48JlVegzbRn2E5HHKrMgr1yfKdjsOGchWXVPMoXltyKcAGaA1oGyuzdvR6eg4GhoHOD6IFIzAuHwaX7sP8_UjWPT2KcwWmOh0M7mTAm5IlAeRdR61B5UpFQjGmUswt93LVRWqGg2PsxlDo2rIjc8OMD0d-r2pTFACvEBts03sB8bDmllL7n3opqXD1GapCk7QIO4344hv0QRW90vtbobpUvFIm8L-zE62IEspYT2gep7JXkPeQO6inVsc4Q6oTYpe39GM19y40vpBNAQt5g9HIPHyG_OwEaamve_9MWiZ6b4zANDboJ_JiVNnbWy6fwYvl1NJWOL8qjAIcr3eLnVR7qPRsYda2F_fCDUTrJ7dgDXi4xE1mPMvmn0WZuItu1BrtFXl8dtgF_O-I9Fgq6uMs1URjDkhyjehHXIFIpNXTOZhyFZ-my0]--></g></svg>