<?xml version="1.0" encoding="us-ascii" standalone="no"?><svg xmlns="http://www.w3.org/2000/svg" xmlns:xlink="http://www.w3.org/1999/xlink" contentStyleType="text/css" height="1986px" preserveAspectRatio="none" style="width:860px;height:1986px;background:#FFFFFF;" version="1.1" viewBox="0 0 860 1986" width="860px" zoomAndPan="magnify"><defs/><g><text fill="#000000" font-family="sans-serif" font-size="20" font-weight="bold" lengthAdjust="spacing" textLength="332" x="262.5" y="40.7617">Socket Interaction Activity Diagram</text><ellipse cx="488.25" cy="66.1563" fill="#222222" rx="10" ry="10" style="stroke:#222222;stroke-width:1.0;"/><rect fill="#F1F1F1" height="42.6406" rx="12.5" ry="12.5" style="stroke:#181818;stroke-width:0.5;" width="99" x="438.75" y="96.1563"/><text fill="#000000" font-family="sans-serif" font-size="18" lengthAdjust="spacing" textLength="79" x="448.75" y="124.8418">Open app</text><polygon fill="#F1F1F1" points="433.75,158.9375,542.75,158.9375,554.75,170.9375,542.75,182.9375,433.75,182.9375,421.75,170.9375,433.75,158.9375" style="stroke:#181818;stroke-width:0.5;"/><text fill="#000000" font-family="sans-serif" font-size="18" lengthAdjust="spacing" textLength="109" x="433.75" y="178.3027">Create room?</text><text fill="#000000" font-family="sans-serif" font-size="16" lengthAdjust="spacing" textLength="24" x="397.75" y="167.4219">yes</text><text fill="#000000" font-family="sans-serif" font-size="16" lengthAdjust="spacing" textLength="17" x="554.75" y="167.4219">no</text><rect fill="#EE82EE" height="42.6406" rx="12.5" ry="12.5" style="stroke:#181818;stroke-width:0.5;" width="158" x="315.25" y="192.9375"/><text fill="#000000" font-family="sans-serif" font-size="18" lengthAdjust="spacing" textLength="138" x="325.25" y="221.623">Emit lobby:create</text><rect fill="#EE82EE" height="42.6406" rx="12.5" ry="12.5" style="stroke:#181818;stroke-width:0.5;" width="200" x="294.25" y="255.5781"/><text fill="#000000" font-family="sans-serif" font-size="18" lengthAdjust="spacing" textLength="180" x="304.25" y="284.2637">Emit lobby:updateLists</text><rect fill="#EE82EE" height="42.6406" rx="12.5" ry="12.5" style="stroke:#181818;stroke-width:0.5;" width="143" x="322.75" y="318.2188"/><text fill="#000000" font-family="sans-serif" font-size="18" lengthAdjust="spacing" textLength="123" x="332.75" y="346.9043">Emit lobby:start</text><rect fill="#EE82EE" height="42.6406" rx="12.5" ry="12.5" style="stroke:#181818;stroke-width:0.5;" width="136" x="514.25" y="192.9375"/><text fill="#000000" font-family="sans-serif" font-size="18" lengthAdjust="spacing" textLength="116" x="524.25" y="221.623">Emit lobby:join</text><polygon fill="#F1F1F1" points="488.25,366.8594,500.25,378.8594,488.25,390.8594,476.25,378.8594,488.25,366.8594" style="stroke:#181818;stroke-width:0.5;"/><rect fill="#90EE90" height="42.6406" rx="12.5" ry="12.5" style="stroke:#181818;stroke-width:0.5;" width="193" x="391.75" y="525.3125"/><text fill="#000000" font-family="sans-serif" font-size="18" lengthAdjust="spacing" textLength="173" x="401.75" y="553.998">Recieve lobby:update</text><rect fill="#F1F1F1" height="42.6406" rx="12.5" ry="12.5" style="stroke:#181818;stroke-width:0.5;" width="189" x="393.75" y="602.9531"/><text fill="#000000" font-family="sans-serif" font-size="18" lengthAdjust="spacing" textLength="169" x="403.75" y="631.6387">Update username list</text><polygon fill="#F1F1F1" points="424.25,473.25,552.25,473.25,564.25,485.25,552.25,497.25,424.25,497.25,412.25,485.25,424.25,473.25" style="stroke:#181818;stroke-width:0.5;"/><text fill="#000000" font-family="sans-serif" font-size="16" lengthAdjust="spacing" textLength="24" x="492.25" y="513.8594">yes</text><text fill="#000000" font-family="sans-serif" font-size="18" lengthAdjust="spacing" textLength="128" x="424.25" y="492.6152">User joins lobby</text><text fill="#000000" font-family="sans-serif" font-size="16" lengthAdjust="spacing" textLength="17" x="564.25" y="481.7344">no</text><polygon fill="#F1F1F1" points="488.25,665.5938,500.25,677.5938,488.25,689.5938,476.25,677.5938,488.25,665.5938" style="stroke:#181818;stroke-width:0.5;"/><polygon fill="#F1F1F1" points="418.75,411,557.75,411,569.75,423,557.75,435,418.75,435,406.75,423,418.75,411" style="stroke:#181818;stroke-width:0.5;"/><text fill="#000000" font-family="sans-serif" font-size="16" lengthAdjust="spacing" textLength="24" x="492.25" y="451.6094">yes</text><text fill="#000000" font-family="sans-serif" font-size="18" lengthAdjust="spacing" textLength="139" x="418.75" y="430.3652">Lobby not started</text><text fill="#000000" font-family="sans-serif" font-size="16" lengthAdjust="spacing" textLength="17" x="389.75" y="419.4844">no</text><rect fill="#90EE90" height="42.6406" rx="12.5" ry="12.5" style="stroke:#181818;stroke-width:0.5;" width="164" x="406.25" y="731.5938"/><text fill="#000000" font-family="sans-serif" font-size="18" lengthAdjust="spacing" textLength="144" x="416.25" y="760.2793">Recieve vote:start</text><rect fill="#90EE90" height="42.6406" rx="12.5" ry="12.5" style="stroke:#181818;stroke-width:0.5;" width="162" x="407.25" y="794.2344"/><text fill="#000000" font-family="sans-serif" font-size="18" lengthAdjust="spacing" textLength="142" x="417.25" y="822.9199">Recieve vote:next</text><rect fill="#F1F1F1" height="42.6406" rx="12.5" ry="12.5" style="stroke:#181818;stroke-width:0.5;" width="244" x="366.25" y="856.875"/><text fill="#000000" font-family="sans-serif" font-size="18" lengthAdjust="spacing" textLength="224" x="376.25" y="885.5605">Save next movie information</text><rect fill="#F1F1F1" height="42.6406" rx="12.5" ry="12.5" style="stroke:#181818;stroke-width:0.5;" width="197" x="389.75" y="1025.7656"/><text fill="#000000" font-family="sans-serif" font-size="18" lengthAdjust="spacing" textLength="177" x="399.75" y="1054.4512">See movie information</text><rect fill="#EE82EE" height="42.6406" rx="12.5" ry="12.5" style="stroke:#181818;stroke-width:0.5;" width="133" x="421.75" y="1088.4063"/><text fill="#000000" font-family="sans-serif" font-size="18" lengthAdjust="spacing" textLength="113" x="431.75" y="1117.0918">Emit vote:vote</text><rect fill="#90EE90" height="42.6406" rx="12.5" ry="12.5" style="stroke:#181818;stroke-width:0.5;" width="317" x="329.75" y="1152.6094"/><text fill="#000000" font-family="sans-serif" font-size="18" lengthAdjust="spacing" textLength="297" x="339.75" y="1181.2949">Recieve either vote:next or vote:done</text><polygon fill="#F1F1F1" points="345.25,1215.3906,631.25,1215.3906,643.25,1227.3906,631.25,1239.3906,345.25,1239.3906,333.25,1227.3906,345.25,1215.3906" style="stroke:#181818;stroke-width:0.5;"/><text fill="#000000" font-family="sans-serif" font-size="18" lengthAdjust="spacing" textLength="286" x="345.25" y="1234.7559">Recieved vote:next with empty body</text><text fill="#000000" font-family="sans-serif" font-size="16" lengthAdjust="spacing" textLength="24" x="309.25" y="1223.875">yes</text><text fill="#000000" font-family="sans-serif" font-size="16" lengthAdjust="spacing" textLength="17" x="643.25" y="1223.875">no</text><rect fill="#F1F1F1" height="42.6406" rx="12.5" ry="12.5" style="stroke:#181818;stroke-width:0.5;" width="188" x="229.25" y="1249.3906"/><text fill="#000000" font-family="sans-serif" font-size="18" lengthAdjust="spacing" textLength="168" x="239.25" y="1278.0762">This is the last movie</text><rect fill="#F1F1F1" height="42.6406" rx="12.5" ry="12.5" style="stroke:#181818;stroke-width:0.5;" width="264" x="521.25" y="1249.3906"/><text fill="#000000" font-family="sans-serif" font-size="18" lengthAdjust="spacing" textLength="244" x="531.25" y="1278.0762">More movies to come and vote</text><polygon fill="#F1F1F1" points="488.25,1298.0313,500.25,1310.0313,488.25,1322.0313,476.25,1310.0313,488.25,1298.0313" style="stroke:#181818;stroke-width:0.5;"/><polygon fill="#F1F1F1" points="407.25,963.6563,569.25,963.6563,581.25,975.6563,569.25,987.6563,407.25,987.6563,395.25,975.6563,407.25,963.6563" style="stroke:#181818;stroke-width:0.5;"/><text fill="#000000" font-family="sans-serif" font-size="16" lengthAdjust="spacing" textLength="146" x="492.25" y="1004.2656">vote:next or vote:start</text><text fill="#000000" font-family="sans-serif" font-size="18" lengthAdjust="spacing" textLength="162" x="407.25" y="983.0215">What was recieved?</text><text fill="#000000" font-family="sans-serif" font-size="16" lengthAdjust="spacing" textLength="68" x="327.25" y="972.1406">vote:done</text><rect fill="#90EE90" height="42.6406" rx="12.5" ry="12.5" style="stroke:#181818;stroke-width:0.5;" width="211" x="382.75" y="1426.2813"/><text fill="#000000" font-family="sans-serif" font-size="18" lengthAdjust="spacing" textLength="191" x="392.75" y="1454.9668">Recieve vote:completed</text><rect fill="#F1F1F1" height="42.6406" rx="12.5" ry="12.5" style="stroke:#181818;stroke-width:0.5;" width="158" x="409.25" y="1494.3594"/><text fill="#000000" font-family="sans-serif" font-size="18" lengthAdjust="spacing" textLength="138" x="419.25" y="1523.0449">See waiting page</text><polygon fill="#F1F1F1" points="375.25,1364.1719,601.25,1364.1719,613.25,1376.1719,601.25,1388.1719,375.25,1388.1719,363.25,1376.1719,375.25,1364.1719" style="stroke:#181818;stroke-width:0.5;"/><text fill="#000000" font-family="sans-serif" font-size="16" lengthAdjust="spacing" textLength="17" x="492.25" y="1404.7813">no</text><text fill="#000000" font-family="sans-serif" font-size="18" lengthAdjust="spacing" textLength="226" x="375.25" y="1383.5371">Everyone voted every movie</text><text fill="#000000" font-family="sans-serif" font-size="16" lengthAdjust="spacing" textLength="24" x="339.25" y="1372.6563">yes</text><rect fill="#90EE90" height="42.6406" rx="12.5" ry="12.5" style="stroke:#181818;stroke-width:0.5;" width="219" x="378.75" y="1579"/><text fill="#000000" font-family="sans-serif" font-size="18" lengthAdjust="spacing" textLength="199" x="388.75" y="1607.6855">Recieve vote:scoreboard</text><rect fill="#F1F1F1" height="42.6406" rx="12.5" ry="12.5" style="stroke:#181818;stroke-width:0.5;" width="147" x="414.75" y="1641.6406"/><text fill="#000000" font-family="sans-serif" font-size="18" lengthAdjust="spacing" textLength="127" x="424.75" y="1670.3262">See scoreboard</text><polygon fill="#F1F1F1" points="426.25,1704.4219,550.25,1704.4219,562.25,1716.4219,550.25,1728.4219,426.25,1728.4219,414.25,1716.4219,426.25,1704.4219" style="stroke:#181818;stroke-width:0.5;"/><text fill="#000000" font-family="sans-serif" font-size="18" lengthAdjust="spacing" textLength="124" x="426.25" y="1723.7871">Are you admin?</text><text fill="#000000" font-family="sans-serif" font-size="16" lengthAdjust="spacing" textLength="24" x="390.25" y="1712.9063">yes</text><text fill="#000000" font-family="sans-serif" font-size="16" lengthAdjust="spacing" textLength="17" x="562.25" y="1712.9063">no</text><polygon fill="#F1F1F1" points="154.5,1738.4219,446.5,1738.4219,458.5,1750.4219,446.5,1762.4219,154.5,1762.4219,142.5,1750.4219,154.5,1738.4219" style="stroke:#181818;stroke-width:0.5;"/><text fill="#000000" font-family="sans-serif" font-size="18" lengthAdjust="spacing" textLength="292" x="154.5" y="1757.7871">Do you want to start a new iteration?</text><text fill="#000000" font-family="sans-serif" font-size="16" lengthAdjust="spacing" textLength="24" x="118.5" y="1746.9063">yes</text><text fill="#000000" font-family="sans-serif" font-size="16" lengthAdjust="spacing" textLength="17" x="458.5" y="1746.9063">no</text><rect fill="#EE82EE" height="42.6406" rx="12.5" ry="12.5" style="stroke:#181818;stroke-width:0.5;" width="243" x="11" y="1772.4219"/><text fill="#000000" font-family="sans-serif" font-size="18" lengthAdjust="spacing" textLength="223" x="21" y="1801.1074">Emit lobby:startNewIteration</text><rect fill="#90EE90" height="42.6406" rx="12.5" ry="12.5" style="stroke:#181818;stroke-width:0.5;" width="164" x="50.5" y="1850.0625"/><text fill="#000000" font-family="sans-serif" font-size="18" lengthAdjust="spacing" textLength="144" x="60.5" y="1878.748">Recieve vote:start</text><rect fill="#EE82EE" height="42.6406" rx="12.5" ry="12.5" style="stroke:#181818;stroke-width:0.5;" width="137" x="400" y="1772.4219"/><text fill="#000000" font-family="sans-serif" font-size="18" lengthAdjust="spacing" textLength="117" x="410" y="1801.1074">Emit lobby:quit</text><ellipse cx="468.5" cy="1861.0625" fill="none" rx="11" ry="11" style="stroke:#222222;stroke-width:1.0;"/><ellipse cx="468.5" cy="1861.0625" fill="#222222" rx="6" ry="6" style="stroke:#222222;stroke-width:1.0;"/><rect fill="#90EE90" height="42.6406" rx="12.5" ry="12.5" style="stroke:#181818;stroke-width:0.5;" width="218" x="567" y="1738.4219"/><text fill="#000000" font-family="sans-serif" font-size="18" lengthAdjust="spacing" textLength="198" x="577" y="1767.1074">Wait to recieve vote:start</text><polygon fill="#F1F1F1" points="594,1816.0625,758,1816.0625,770,1828.0625,758,1840.0625,594,1840.0625,582,1828.0625,594,1816.0625" style="stroke:#181818;stroke-width:0.5;"/><text fill="#000000" font-family="sans-serif" font-size="16" lengthAdjust="spacing" textLength="24" x="680" y="1856.6719">yes</text><text fill="#000000" font-family="sans-serif" font-size="18" lengthAdjust="spacing" textLength="164" x="594" y="1835.4277">Recieved vote:start?</text><text fill="#000000" font-family="sans-serif" font-size="16" lengthAdjust="spacing" textLength="17" x="770" y="1824.5469">no</text><ellipse cx="809" cy="1828.0625" fill="none" rx="11" ry="11" style="stroke:#222222;stroke-width:1.0;"/><ellipse cx="809" cy="1828.0625" fill="#222222" rx="6" ry="6" style="stroke:#222222;stroke-width:1.0;"/><polygon fill="#F1F1F1" points="488.25,1902.7031,500.25,1914.7031,488.25,1926.7031,476.25,1914.7031,488.25,1902.7031" style="stroke:#181818;stroke-width:0.5;"/><polygon fill="#F1F1F1" points="488.25,919.5156,500.25,931.5156,488.25,943.5156,476.25,931.5156,488.25,919.5156" style="stroke:#181818;stroke-width:0.5;"/><line style="stroke:#181818;stroke-width:1.0;" x1="488.25" x2="488.25" y1="76.1563" y2="96.1563"/><polygon fill="#181818" points="484.25,86.1563,488.25,96.1563,492.25,86.1563,488.25,90.1563" style="stroke:#181818;stroke-width:1.0;"/><line style="stroke:#181818;stroke-width:1.0;" x1="394.25" x2="394.25" y1="235.5781" y2="255.5781"/><polygon fill="#181818" points="390.25,245.5781,394.25,255.5781,398.25,245.5781,394.25,249.5781" style="stroke:#181818;stroke-width:1.0;"/><line style="stroke:#181818;stroke-width:1.0;" x1="394.25" x2="394.25" y1="298.2188" y2="318.2188"/><polygon fill="#181818" points="390.25,308.2188,394.25,318.2188,398.25,308.2188,394.25,312.2188" style="stroke:#181818;stroke-width:1.0;"/><line style="stroke:#181818;stroke-width:1.0;" x1="421.75" x2="394.25" y1="170.9375" y2="170.9375"/><line style="stroke:#181818;stroke-width:1.0;" x1="394.25" x2="394.25" y1="170.9375" y2="192.9375"/><polygon fill="#181818" points="390.25,182.9375,394.25,192.9375,398.25,182.9375,394.25,186.9375" style="stroke:#181818;stroke-width:1.0;"/><line style="stroke:#181818;stroke-width:1.0;" x1="554.75" x2="582.25" y1="170.9375" y2="170.9375"/><line style="stroke:#181818;stroke-width:1.0;" x1="582.25" x2="582.25" y1="170.9375" y2="192.9375"/><polygon fill="#181818" points="578.25,182.9375,582.25,192.9375,586.25,182.9375,582.25,186.9375" style="stroke:#181818;stroke-width:1.0;"/><line style="stroke:#181818;stroke-width:1.0;" x1="394.25" x2="394.25" y1="360.8594" y2="378.8594"/><line style="stroke:#181818;stroke-width:1.0;" x1="394.25" x2="476.25" y1="378.8594" y2="378.8594"/><polygon fill="#181818" points="466.25,374.8594,476.25,378.8594,466.25,382.8594,470.25,378.8594" style="stroke:#181818;stroke-width:1.0;"/><line style="stroke:#181818;stroke-width:1.0;" x1="582.25" x2="582.25" y1="235.5781" y2="378.8594"/><line style="stroke:#181818;stroke-width:1.0;" x1="582.25" x2="500.25" y1="378.8594" y2="378.8594"/><polygon fill="#181818" points="510.25,374.8594,500.25,378.8594,510.25,382.8594,506.25,378.8594" style="stroke:#181818;stroke-width:1.0;"/><line style="stroke:#181818;stroke-width:1.0;" x1="488.25" x2="488.25" y1="138.7969" y2="158.9375"/><polygon fill="#181818" points="484.25,148.9375,488.25,158.9375,492.25,148.9375,488.25,152.9375" style="stroke:#181818;stroke-width:1.0;"/><line style="stroke:#181818;stroke-width:1.0;" x1="488.25" x2="488.25" y1="567.9531" y2="602.9531"/><polygon fill="#181818" points="484.25,592.9531,488.25,602.9531,492.25,592.9531,488.25,596.9531" style="stroke:#181818;stroke-width:1.0;"/><line style="stroke:#181818;stroke-width:1.0;" x1="488.25" x2="488.25" y1="497.25" y2="525.3125"/><polygon fill="#181818" points="484.25,515.3125,488.25,525.3125,492.25,515.3125,488.25,519.3125" style="stroke:#181818;stroke-width:1.0;"/><line style="stroke:#181818;stroke-width:1.0;" x1="564.25" x2="594.75" y1="485.25" y2="485.25"/><polygon fill="#181818" points="590.75,575.4531,594.75,585.4531,598.75,575.4531,594.75,579.4531" style="stroke:#181818;stroke-width:1.0;"/><line style="stroke:#181818;stroke-width:1.0;" x1="594.75" x2="594.75" y1="485.25" y2="677.5938"/><line style="stroke:#181818;stroke-width:1.0;" x1="594.75" x2="500.25" y1="677.5938" y2="677.5938"/><polygon fill="#181818" points="510.25,673.5938,500.25,677.5938,510.25,681.5938,506.25,677.5938" style="stroke:#181818;stroke-width:1.0;"/><line style="stroke:#181818;stroke-width:1.0;" x1="488.25" x2="488.25" y1="645.5938" y2="665.5938"/><polygon fill="#181818" points="484.25,655.5938,488.25,665.5938,492.25,655.5938,488.25,659.5938" style="stroke:#181818;stroke-width:1.0;"/><line style="stroke:#181818;stroke-width:1.0;" x1="488.25" x2="488.25" y1="435" y2="473.25"/><polygon fill="#181818" points="484.25,463.25,488.25,473.25,492.25,463.25,488.25,467.25" style="stroke:#181818;stroke-width:1.0;"/><line style="stroke:#181818;stroke-width:1.0;" x1="488.25" x2="488.25" y1="689.5938" y2="699.5938"/><line style="stroke:#181818;stroke-width:1.0;" x1="488.25" x2="618.75" y1="699.5938" y2="699.5938"/><polygon fill="#181818" points="614.75,573.3906,618.75,563.3906,622.75,573.3906,618.75,569.3906" style="stroke:#181818;stroke-width:1.0;"/><line style="stroke:#181818;stroke-width:1.0;" x1="618.75" x2="618.75" y1="423" y2="699.5938"/><line style="stroke:#181818;stroke-width:1.0;" x1="618.75" x2="569.75" y1="423" y2="423"/><polygon fill="#181818" points="579.75,419,569.75,423,579.75,427,575.75,423" style="stroke:#181818;stroke-width:1.0;"/><line style="stroke:#181818;stroke-width:1.0;" x1="406.75" x2="369.75" y1="423" y2="423"/><polygon fill="#181818" points="365.75,559.3906,369.75,569.3906,373.75,559.3906,369.75,563.3906" style="stroke:#181818;stroke-width:1.0;"/><line style="stroke:#181818;stroke-width:1.0;" x1="369.75" x2="369.75" y1="423" y2="711.5938"/><line style="stroke:#181818;stroke-width:1.0;" x1="369.75" x2="488.25" y1="711.5938" y2="711.5938"/><line style="stroke:#181818;stroke-width:1.0;" x1="488.25" x2="488.25" y1="711.5938" y2="731.5938"/><polygon fill="#181818" points="484.25,721.5938,488.25,731.5938,492.25,721.5938,488.25,725.5938" style="stroke:#181818;stroke-width:1.0;"/><line style="stroke:#181818;stroke-width:1.0;" x1="488.25" x2="488.25" y1="390.8594" y2="411"/><polygon fill="#181818" points="484.25,401,488.25,411,492.25,401,488.25,405" style="stroke:#181818;stroke-width:1.0;"/><line style="stroke:#181818;stroke-width:1.0;" x1="488.25" x2="488.25" y1="774.2344" y2="794.2344"/><polygon fill="#181818" points="484.25,784.2344,488.25,794.2344,492.25,784.2344,488.25,788.2344" style="stroke:#181818;stroke-width:1.0;"/><line style="stroke:#181818;stroke-width:1.0;" x1="488.25" x2="488.25" y1="836.875" y2="856.875"/><polygon fill="#181818" points="484.25,846.875,488.25,856.875,492.25,846.875,488.25,850.875" style="stroke:#181818;stroke-width:1.0;"/><line style="stroke:#181818;stroke-width:1.0;" x1="488.25" x2="488.25" y1="1068.4063" y2="1088.4063"/><polygon fill="#181818" points="484.25,1078.4063,488.25,1088.4063,492.25,1078.4063,488.25,1082.4063" style="stroke:#181818;stroke-width:1.0;"/><line style="stroke:#181818;stroke-width:1.0;" x1="488.25" x2="488.25" y1="1131.0469" y2="1152.6094"/><polygon fill="#181818" points="484.25,1142.6094,488.25,1152.6094,492.25,1142.6094,488.25,1146.6094" style="stroke:#181818;stroke-width:1.0;"/><line style="stroke:#181818;stroke-width:1.0;" x1="333.25" x2="323.25" y1="1227.3906" y2="1227.3906"/><line style="stroke:#181818;stroke-width:1.0;" x1="323.25" x2="323.25" y1="1227.3906" y2="1249.3906"/><polygon fill="#181818" points="319.25,1239.3906,323.25,1249.3906,327.25,1239.3906,323.25,1243.3906" style="stroke:#181818;stroke-width:1.0;"/><line style="stroke:#181818;stroke-width:1.0;" x1="643.25" x2="653.25" y1="1227.3906" y2="1227.3906"/><line style="stroke:#181818;stroke-width:1.0;" x1="653.25" x2="653.25" y1="1227.3906" y2="1249.3906"/><polygon fill="#181818" points="649.25,1239.3906,653.25,1249.3906,657.25,1239.3906,653.25,1243.3906" style="stroke:#181818;stroke-width:1.0;"/><line style="stroke:#181818;stroke-width:1.0;" x1="323.25" x2="323.25" y1="1292.0313" y2="1310.0313"/><line style="stroke:#181818;stroke-width:1.0;" x1="323.25" x2="476.25" y1="1310.0313" y2="1310.0313"/><polygon fill="#181818" points="466.25,1306.0313,476.25,1310.0313,466.25,1314.0313,470.25,1310.0313" style="stroke:#181818;stroke-width:1.0;"/><line style="stroke:#181818;stroke-width:1.0;" x1="653.25" x2="653.25" y1="1292.0313" y2="1310.0313"/><line style="stroke:#181818;stroke-width:1.0;" x1="653.25" x2="500.25" y1="1310.0313" y2="1310.0313"/><polygon fill="#181818" points="510.25,1306.0313,500.25,1310.0313,510.25,1314.0313,506.25,1310.0313" style="stroke:#181818;stroke-width:1.0;"/><line style="stroke:#181818;stroke-width:1.0;" x1="488.25" x2="488.25" y1="1195.25" y2="1215.3906"/><polygon fill="#181818" points="484.25,1205.3906,488.25,1215.3906,492.25,1205.3906,488.25,1209.3906" style="stroke:#181818;stroke-width:1.0;"/><line style="stroke:#181818;stroke-width:1.0;" x1="488.25" x2="488.25" y1="987.6563" y2="1025.7656"/><polygon fill="#181818" points="484.25,1015.7656,488.25,1025.7656,492.25,1015.7656,488.25,1019.7656" style="stroke:#181818;stroke-width:1.0;"/><line style="stroke:#181818;stroke-width:1.0;" x1="488.25" x2="488.25" y1="1322.0313" y2="1332.0313"/><line style="stroke:#181818;stroke-width:1.0;" x1="488.25" x2="807.25" y1="1332.0313" y2="1332.0313"/><polygon fill="#181818" points="803.25,1155.0469,807.25,1145.0469,811.25,1155.0469,807.25,1151.0469" style="stroke:#181818;stroke-width:1.0;"/><line style="stroke:#181818;stroke-width:1.0;" x1="807.25" x2="807.25" y1="975.6563" y2="1332.0313"/><line style="stroke:#181818;stroke-width:1.0;" x1="807.25" x2="581.25" y1="975.6563" y2="975.6563"/><polygon fill="#181818" points="591.25,971.6563,581.25,975.6563,591.25,979.6563,587.25,975.6563" style="stroke:#181818;stroke-width:1.0;"/><line style="stroke:#181818;stroke-width:1.0;" x1="395.25" x2="207.25" y1="975.6563" y2="975.6563"/><polygon fill="#181818" points="203.25,1141.0469,207.25,1151.0469,211.25,1141.0469,207.25,1145.0469" style="stroke:#181818;stroke-width:1.0;"/><line style="stroke:#181818;stroke-width:1.0;" x1="207.25" x2="207.25" y1="975.6563" y2="1344.0313"/><line style="stroke:#181818;stroke-width:1.0;" x1="207.25" x2="488.25" y1="1344.0313" y2="1344.0313"/><line style="stroke:#181818;stroke-width:1.0;" x1="488.25" x2="488.25" y1="1344.0313" y2="1364.1719"/><polygon fill="#181818" points="484.25,1354.1719,488.25,1364.1719,492.25,1354.1719,488.25,1358.1719" style="stroke:#181818;stroke-width:1.0;"/><line style="stroke:#181818;stroke-width:1.0;" x1="488.25" x2="488.25" y1="1468.9219" y2="1494.3594"/><polygon fill="#181818" points="484.25,1484.3594,488.25,1494.3594,492.25,1484.3594,488.25,1488.3594" style="stroke:#181818;stroke-width:1.0;"/><line style="stroke:#181818;stroke-width:1.0;" x1="488.25" x2="488.25" y1="1388.1719" y2="1426.2813"/><polygon fill="#181818" points="484.25,1416.2813,488.25,1426.2813,492.25,1416.2813,488.25,1420.2813" style="stroke:#181818;stroke-width:1.0;"/><line style="stroke:#181818;stroke-width:1.0;" x1="488.25" x2="488.25" y1="1537" y2="1547"/><line style="stroke:#181818;stroke-width:1.0;" x1="488.25" x2="625.25" y1="1547" y2="1547"/><polygon fill="#181818" points="621.25,1474.3594,625.25,1464.3594,629.25,1474.3594,625.25,1470.3594" style="stroke:#181818;stroke-width:1.0;"/><line style="stroke:#181818;stroke-width:1.0;" x1="625.25" x2="625.25" y1="1376.1719" y2="1547"/><line style="stroke:#181818;stroke-width:1.0;" x1="625.25" x2="613.25" y1="1376.1719" y2="1376.1719"/><polygon fill="#181818" points="623.25,1372.1719,613.25,1376.1719,623.25,1380.1719,619.25,1376.1719" style="stroke:#181818;stroke-width:1.0;"/><line style="stroke:#181818;stroke-width:1.0;" x1="363.25" x2="351.25" y1="1376.1719" y2="1376.1719"/><polygon fill="#181818" points="347.25,1460.3594,351.25,1470.3594,355.25,1460.3594,351.25,1464.3594" style="stroke:#181818;stroke-width:1.0;"/><line style="stroke:#181818;stroke-width:1.0;" x1="351.25" x2="351.25" y1="1376.1719" y2="1559"/><line style="stroke:#181818;stroke-width:1.0;" x1="351.25" x2="488.25" y1="1559" y2="1559"/><line style="stroke:#181818;stroke-width:1.0;" x1="488.25" x2="488.25" y1="1559" y2="1579"/><polygon fill="#181818" points="484.25,1569,488.25,1579,492.25,1569,488.25,1573" style="stroke:#181818;stroke-width:1.0;"/><line style="stroke:#181818;stroke-width:1.0;" x1="488.25" x2="488.25" y1="1621.6406" y2="1641.6406"/><polygon fill="#181818" points="484.25,1631.6406,488.25,1641.6406,492.25,1631.6406,488.25,1635.6406" style="stroke:#181818;stroke-width:1.0;"/><line style="stroke:#181818;stroke-width:1.0;" x1="132.5" x2="132.5" y1="1815.0625" y2="1850.0625"/><polygon fill="#181818" points="128.5,1840.0625,132.5,1850.0625,136.5,1840.0625,132.5,1844.0625" style="stroke:#181818;stroke-width:1.0;"/><line style="stroke:#181818;stroke-width:1.0;" x1="468.5" x2="468.5" y1="1815.0625" y2="1850.0625"/><polygon fill="#181818" points="464.5,1840.0625,468.5,1850.0625,472.5,1840.0625,468.5,1844.0625" style="stroke:#181818;stroke-width:1.0;"/><line style="stroke:#181818;stroke-width:1.0;" x1="142.5" x2="132.5" y1="1750.4219" y2="1750.4219"/><line style="stroke:#181818;stroke-width:1.0;" x1="132.5" x2="132.5" y1="1750.4219" y2="1772.4219"/><polygon fill="#181818" points="128.5,1762.4219,132.5,1772.4219,136.5,1762.4219,132.5,1766.4219" style="stroke:#181818;stroke-width:1.0;"/><line style="stroke:#181818;stroke-width:1.0;" x1="458.5" x2="468.5" y1="1750.4219" y2="1750.4219"/><line style="stroke:#181818;stroke-width:1.0;" x1="468.5" x2="468.5" y1="1750.4219" y2="1772.4219"/><polygon fill="#181818" points="464.5,1762.4219,468.5,1772.4219,472.5,1762.4219,468.5,1766.4219" style="stroke:#181818;stroke-width:1.0;"/><line style="stroke:#181818;stroke-width:1.0;" x1="132.5" x2="132.5" y1="1892.7031" y2="1914.7031"/><line style="stroke:#181818;stroke-width:1.0;" x1="132.5" x2="476.25" y1="1914.7031" y2="1914.7031"/><polygon fill="#181818" points="466.25,1910.7031,476.25,1914.7031,466.25,1918.7031,470.25,1914.7031" style="stroke:#181818;stroke-width:1.0;"/><line style="stroke:#181818;stroke-width:1.0;" x1="676" x2="676" y1="1840.0625" y2="1914.7031"/><line style="stroke:#181818;stroke-width:1.0;" x1="676" x2="500.25" y1="1914.7031" y2="1914.7031"/><polygon fill="#181818" points="510.25,1910.7031,500.25,1914.7031,510.25,1918.7031,506.25,1914.7031" style="stroke:#181818;stroke-width:1.0;"/><line style="stroke:#181818;stroke-width:1.0;" x1="770" x2="798" y1="1828.0625" y2="1828.0625"/><polygon fill="#181818" points="788,1824.0625,798,1828.0625,788,1832.0625,792,1828.0625" style="stroke:#181818;stroke-width:1.0;"/><line style="stroke:#181818;stroke-width:1.0;" x1="676" x2="676" y1="1781.0625" y2="1816.0625"/><polygon fill="#181818" points="672,1806.0625,676,1816.0625,680,1806.0625,676,1810.0625" style="stroke:#181818;stroke-width:1.0;"/><line style="stroke:#181818;stroke-width:1.0;" x1="414.25" x2="300.5" y1="1716.4219" y2="1716.4219"/><line style="stroke:#181818;stroke-width:1.0;" x1="300.5" x2="300.5" y1="1716.4219" y2="1738.4219"/><polygon fill="#181818" points="296.5,1728.4219,300.5,1738.4219,304.5,1728.4219,300.5,1732.4219" style="stroke:#181818;stroke-width:1.0;"/><line style="stroke:#181818;stroke-width:1.0;" x1="562.25" x2="676" y1="1716.4219" y2="1716.4219"/><line style="stroke:#181818;stroke-width:1.0;" x1="676" x2="676" y1="1716.4219" y2="1738.4219"/><polygon fill="#181818" points="672,1728.4219,676,1738.4219,680,1728.4219,676,1732.4219" style="stroke:#181818;stroke-width:1.0;"/><line style="stroke:#181818;stroke-width:1.0;" x1="488.25" x2="488.25" y1="1684.2813" y2="1704.4219"/><polygon fill="#181818" points="484.25,1694.4219,488.25,1704.4219,492.25,1694.4219,488.25,1698.4219" style="stroke:#181818;stroke-width:1.0;"/><line style="stroke:#181818;stroke-width:1.0;" x1="488.25" x2="488.25" y1="943.5156" y2="963.6563"/><polygon fill="#181818" points="484.25,953.6563,488.25,963.6563,492.25,953.6563,488.25,957.6563" style="stroke:#181818;stroke-width:1.0;"/><line style="stroke:#181818;stroke-width:1.0;" x1="488.25" x2="488.25" y1="1926.7031" y2="1974.7031"/><line style="stroke:#181818;stroke-width:1.0;" x1="488.25" x2="834" y1="1974.7031" y2="1974.7031"/><polygon fill="#181818" points="830,1442.2969,834,1432.2969,838,1442.2969,834,1438.2969" style="stroke:#181818;stroke-width:1.0;"/><line style="stroke:#181818;stroke-width:1.0;" x1="834" x2="834" y1="931.5156" y2="1974.7031"/><line style="stroke:#181818;stroke-width:1.0;" x1="834" x2="500.25" y1="931.5156" y2="931.5156"/><polygon fill="#181818" points="510.25,927.5156,500.25,931.5156,510.25,935.5156,506.25,931.5156" style="stroke:#181818;stroke-width:1.0;"/><line style="stroke:#181818;stroke-width:1.0;" x1="488.25" x2="488.25" y1="899.5156" y2="919.5156"/><polygon fill="#181818" points="484.25,909.5156,488.25,919.5156,492.25,909.5156,488.25,913.5156" style="stroke:#181818;stroke-width:1.0;"/><!--SRC=[VLHBZzD03BxdLrZYG7i33WWbXwhx0ArKGAAxx7cQSLlJP1ncfWtbr-EPPDEK91j5qyR-_FfipvuqGausBp3nvELSStv03m_6erMv9pQmb9yJ-JFSaTfPLIPeD3Jejr3WreDdiBJRUz1aCHg9nXt8L4hmdGEnBzde6vKVTfQFHjzomHPMmVIBHJJ9qEOp6x-clmZlFurebzPoVO5yx44UGuATwiExn7bbVP9-hz20ggeieUtirgBo29QvNCp1xqKrEwER9o3Fcv_4XN2HtfVaeU3DvfpcqI2Rr1yhBVeLEU-cGJ6JBC728SmCJqVxnMIoG3TjatfF1SvMGGw6FKGdgET0hfUprFJaq4AmT8sNGLqnseLqI7zWJdZ2gnAo3fe-HG4SnQzHfS2akaPzNK6JfvmnrKO-6kV47bz8c0OO_2FwTAr44Fv3oIT28BDbMwemP5bYiP9-jDmyxvM7MZcmZHkzQCZfl84CsoLsatIwHXppF6n9j0n7gnnB74cujZ2CgDcqTjAX5grxk5eC0SjAjcp3UhndwUDUof5NT50erp8oree8_ygsBSs53SrPUgTC4pKRxLYNwhobzFw4zYpVqKO3Xi_6PKDjDxoJNPIebN28EhlGNIloP7PGgHrclV2nsbSc9fU2Dgoi3cCXVle2eNKfvPxv24gNP8RhB8WxZe1QcNXdnJ409TDL0uNxBhH-CRulKsly3Uk75zFizVNgZ_ruoyQY_3wIlpXsdgj-wwwla7xKPo4vNimJqGTp67N3weTP_fz3FFy1]--></g></svg>