<?xml version="1.0" encoding="us-ascii" standalone="no"?><svg xmlns="http://www.w3.org/2000/svg" xmlns:xlink="http://www.w3.org/1999/xlink" contentStyleType="text/css" height="596px" preserveAspectRatio="none" style="width:651px;height:596px;background:#FFFFFF;" version="1.1" viewBox="0 0 651 596" width="651px" zoomAndPan="magnify"><defs/><g><text fill="#000000" font-family="sans-serif" font-size="22" font-weight="bold" lengthAdjust="spacing" textLength="415" x="111" y="32.8379">Classes used in the socket logic diagram</text><!--class Movie--><g id="elem_Movie"><rect codeLine="14" fill="#F1F1F1" height="184.4844" id="Movie" rx="2.5" ry="2.5" style="stroke:#181818;stroke-width:0.5;" width="153" x="15" y="405.1719"/><text fill="#000000" font-family="sans-serif" font-size="18" lengthAdjust="spacing" textLength="48" x="67.5" y="428.8574">Movie</text><line style="stroke:#181818;stroke-width:0.5;" x1="16" x2="167" y1="437.8125" y2="437.8125"/><text fill="#000000" font-family="sans-serif" font-size="18" lengthAdjust="spacing" textLength="84" x="21" y="460.498">id: number</text><text fill="#000000" font-family="sans-serif" font-size="18" lengthAdjust="spacing" textLength="82" x="21" y="483.1387">title: string</text><text fill="#000000" font-family="sans-serif" font-size="18" lengthAdjust="spacing" textLength="98" x="21" y="505.7793">cover: string</text><text fill="#000000" font-family="sans-serif" font-size="18" lengthAdjust="spacing" textLength="89" x="21" y="528.4199">year: string</text><text fill="#000000" font-family="sans-serif" font-size="18" lengthAdjust="spacing" textLength="119" x="21" y="551.0605">genres: string[]</text><text fill="#000000" font-family="sans-serif" font-size="18" lengthAdjust="spacing" textLength="141" x="21" y="573.7012">description: string</text><line style="stroke:#181818;stroke-width:0.5;" x1="16" x2="167" y1="581.6563" y2="581.6563"/></g><g id="elem_GMN3"><path d="M303,469.6719 L303,493.1719 L168.11,497.1719 L303,501.1719 L303,524.9531 A0,0 0 0 0 303,524.9531 L577,524.9531 A0,0 0 0 0 577,524.9531 L577,479.6719 L567,469.6719 L303,469.6719 A0,0 0 0 0 303,469.6719 " fill="#FEFFDD" style="stroke:#181818;stroke-width:0.5;"/><path d="M567,469.6719 L567,479.6719 L577,479.6719 L567,469.6719 " fill="#FEFFDD" style="stroke:#181818;stroke-width:0.5;"/><text fill="#000000" font-family="sans-serif" font-size="18" lengthAdjust="spacing" textLength="253" x="309" y="493.3574">This class represents the movie</text><text fill="#000000" font-family="sans-serif" font-size="18" lengthAdjust="spacing" textLength="184" x="309" y="515.998">that is sent to the client</text></g><!--class ScoreboardField--><g id="elem_ScoreboardField"><rect codeLine="26" fill="#F1F1F1" height="161.8438" id="ScoreboardField" rx="2.5" ry="2.5" style="stroke:#181818;stroke-width:0.5;" width="169" x="7" y="208.1719"/><text fill="#000000" font-family="sans-serif" font-size="18" lengthAdjust="spacing" textLength="132" x="25.5" y="231.8574">ScoreboardField</text><line style="stroke:#181818;stroke-width:0.5;" x1="8" x2="175" y1="240.8125" y2="240.8125"/><text fill="#000000" font-family="sans-serif" font-size="18" lengthAdjust="spacing" textLength="98" x="13" y="263.498">score: string</text><text fill="#000000" font-family="sans-serif" font-size="18" lengthAdjust="spacing" textLength="157" x="13" y="286.1387">external_id: number</text><text fill="#000000" font-family="sans-serif" font-size="18" lengthAdjust="spacing" textLength="82" x="13" y="308.7793">title: string</text><text fill="#000000" font-family="sans-serif" font-size="18" lengthAdjust="spacing" textLength="89" x="13" y="331.4199">year: string</text><text fill="#000000" font-family="sans-serif" font-size="18" lengthAdjust="spacing" textLength="119" x="13" y="354.0605">genres: string[]</text><line style="stroke:#181818;stroke-width:0.5;" x1="8" x2="175" y1="362.0156" y2="362.0156"/></g><g id="elem_GMN7"><path d="M265,261.6719 L265,285.1719 L176.38,289.1719 L265,293.1719 L265,316.9531 A0,0 0 0 0 265,316.9531 L615,316.9531 A0,0 0 0 0 615,316.9531 L615,271.6719 L605,261.6719 L265,261.6719 A0,0 0 0 0 265,261.6719 " fill="#FEFFDD" style="stroke:#181818;stroke-width:0.5;"/><path d="M605,261.6719 L605,271.6719 L615,271.6719 L605,261.6719 " fill="#FEFFDD" style="stroke:#181818;stroke-width:0.5;"/><text fill="#000000" font-family="sans-serif" font-size="18" lengthAdjust="spacing" textLength="276" x="271" y="285.3574">This class represents a single field</text><text fill="#000000" font-family="sans-serif" font-size="18" lengthAdjust="spacing" textLength="329" x="271" y="307.998">of the scoreboard that is sent to the client</text></g><!--class ListItem--><g id="elem_ListItem"><rect codeLine="37" fill="#F1F1F1" height="116.5625" id="ListItem" rx="2.5" ry="2.5" style="stroke:#181818;stroke-width:0.5;" width="134" x="24.5" y="55.6719"/><text fill="#000000" font-family="sans-serif" font-size="18" lengthAdjust="spacing" textLength="61" x="61" y="79.3574">ListItem</text><line style="stroke:#181818;stroke-width:0.5;" x1="25.5" x2="157.5" y1="88.3125" y2="88.3125"/><text fill="#000000" font-family="sans-serif" font-size="18" lengthAdjust="spacing" textLength="98" x="30.5" y="110.998">name: string</text><text fill="#000000" font-family="sans-serif" font-size="18" lengthAdjust="spacing" textLength="90" x="30.5" y="133.6387">id: ObjectId</text><text fill="#000000" font-family="sans-serif" font-size="18" lengthAdjust="spacing" textLength="122" x="30.5" y="156.2793">status: boolean</text><line style="stroke:#181818;stroke-width:0.5;" x1="25.5" x2="157.5" y1="164.2344" y2="164.2344"/></g><g id="elem_GMN11"><path d="M236,86.6719 L236,110.1719 L158.9,114.1719 L236,118.1719 L236,141.9531 A0,0 0 0 0 236,141.9531 L644,141.9531 A0,0 0 0 0 644,141.9531 L644,96.6719 L634,86.6719 L236,86.6719 A0,0 0 0 0 236,86.6719 " fill="#FEFFDD" style="stroke:#181818;stroke-width:0.5;"/><path d="M634,86.6719 L634,96.6719 L644,96.6719 L634,86.6719 " fill="#FEFFDD" style="stroke:#181818;stroke-width:0.5;"/><text fill="#000000" font-family="sans-serif" font-size="18" lengthAdjust="spacing" textLength="276" x="242" y="110.3574">This class represents a single item</text><text fill="#000000" font-family="sans-serif" font-size="18" lengthAdjust="spacing" textLength="387" x="242" y="132.998">in the array of movie lists that is sent to the client</text></g><!--SRC=[bLDDQm8n4BtlhvYVq7egtaf146mBrLif9PkCkrEpYMHcfRRqlpSVLjs2g7i8vBsNcVSosPOCWgQWBLP24jS7gvYHeMSqG0waHM2lLoXWVKCQ3AacgAv2Pw0SiRWK40-1cbOY7r0BULTLl2AtLb4CYoISU2Tp-a8OZOwebwXMhZb5Ppy7wkO_TIyIgExbSFpsxaZpv4ynCsnYX6EkqgaWFFeD8NnN43yoOt1zLsF8svnt31nRkYOZscym390jgY4GsmJaF-ZrBOC6MGTQftlQYtyg5zsMQyoYHKiCnLJ0TIo2JZXFf4iUYwLM2KHPuj8G4gijnLsUKAguopNNFc3jLJ0JGcjs2JcX0x_uAHYSikzdmv-FUc4a1Kpf2S0oESj2lonFRs_wYgGpOfaAThk8JdL3todOS_qH7zwqD6DHqaVVjVSMbRlQDiLcfNBvOLG8QfiYv3c1ZNxu4l-_]--></g></svg>